<svg xmlns="http://www.w3.org/2000/svg" viewBox="0 0 16 16"  width="100%" height="auto">
    <defs>
        <style>
            .cls-1{fill:#fff;}
            .cls-2{fill:#c0000040;}
            .cls-3{fill:#33333340;}
        </style>
    </defs>
    <g id="Capa_2" data-name="Capa 2">
        <g id="Capa_1-2" data-name="Capa 1">
            <path class="cls-2" d="M10.42,2.93,9.9,2.7a2.56,2.56,0,0,0-1.07-.25,2.63,2.63,0,0,0-1.12.28,1.5,1.5,0,0,1-.57.16,1.12,1.12,0,0,1-.48-.13l-.54-.22h0s0,0,0,0l-.5,1.18a.06.06,0,0,0,0,.08l.53.22a2.52,2.52,0,0,0,1,.24A2.64,2.64,0,0,0,8.27,4a1.5,1.5,0,0,1,.56-.16A1.4,1.4,0,0,1,9.35,4l.53.23a0,0,0,0,0,0,0l0,0L10.46,3A.06.06,0,0,0,10.42,2.93Z"/>
            <path class="cls-3" d="M12.48,13.39,8.84,5.32a.12.12,0,0,0-.11-.07H7.26a.12.12,0,0,0-.11.07L3.52,13.39a.11.11,0,0,0,0,.11.12.12,0,0,0,.1.05H5.21a.23.23,0,0,0,.21-.14L8,7.41l2.59,6a.23.23,0,0,0,.21.14h1.59a.12.12,0,0,0,.1-.05A.11.11,0,0,0,12.48,13.39Z"/>
        </g>
    </g>
</svg>
