<?xml version="1.0" encoding="UTF-8"?><svg xmlns="http://www.w3.org/2000/svg" viewBox="0 0 433.94 76.58"><defs><style>.d{fill:#010101;}.e{fill:#af191c;}.f{fill:#c0181b;}.g{fill:#343434;}</style></defs><g id="a"/><g id="b"><g id="c"><g><g><path class="g" d="M26.87,56.82H7.96V26.02c0-.29-.24-.53-.53-.53H.53c-.29,0-.53,.24-.53,.53V63.19c0,.29,.24,.53,.53,.53H26.87c.29,0,.53-.24,.53-.53v-5.84c0-.29-.24-.53-.53-.53Z"/><path class="g" d="M156.59,56.88h-20.44v-24.53h19.7c.29,0,.53-.24,.53-.53v-5.79c0-.29-.24-.53-.53-.53h-27.13c-.29,0-.53,.24-.53,.53V63.19c0,.29,.24,.53,.53,.53h27.88c.29,0,.53-.24,.53-.53v-5.79c0-.29-.24-.53-.53-.53Z"/><rect class="g" x="213.19" y="25.49" width="7.96" height="38.23" rx=".53" ry=".53"/><path class="g" d="M262.73,25.49h-31.54c-.29,0-.53,.24-.53,.53v5.84c0,.29,.24,.53,.53,.53h11.79v30.8c0,.29,.24,.53,.53,.53h6.9c.29,0,.53-.24,.53-.53v-30.8h11.79c.29,0,.53-.24,.53-.53v-5.84c0-.29-.24-.53-.53-.53Z"/><path class="g" d="M110.54,43.76c1.12-.76,2.04-1.74,2.75-2.91,.9-1.49,1.35-3.23,1.35-5.16,0-3.17-1.27-5.7-3.78-7.52-2.45-1.78-5.97-2.68-10.45-2.68h-17.42c-.29,0-.53,.24-.53,.53V63.19c0,.29,.24,.53,.53,.53h18.48c4.83,0,8.58-.92,11.14-2.73,2.62-1.85,3.94-4.51,3.94-7.89,0-2.44-.64-4.53-1.91-6.19-1.05-1.38-2.43-2.44-4.09-3.16Zm-5.62-3.81c-1.2,.8-2.96,1.21-5.25,1.21h-5.48c-.29,0-.53,.23-.53,.52l-.06,5.36c0,.14,.05,.28,.15,.38,.1,.1,.24,.16,.38,.16h6.92c5.04,0,7.49,1.58,7.49,4.83s-2.45,4.83-7.49,4.83h-10.62V31.97h9.24c2.29,0,4.06,.41,5.25,1.21,1.15,.77,1.7,1.89,1.7,3.41s-.56,2.59-1.7,3.36Z"/><path class="g" d="M193.62,51.22c2.34-1.02,4.19-2.52,5.49-4.45,1.42-2.1,2.13-4.63,2.13-7.52s-.67-5.29-2-7.35c-1.33-2.06-3.25-3.67-5.73-4.76-2.45-1.09-5.35-1.64-8.63-1.64h-15.29c-.29,0-.53,.24-.53,.53V63.19c0,.29,.24,.53,.53,.53h6.9c.29,0,.53-.24,.53-.53v-30.8h7.54c2.87,0,5.06,.6,6.51,1.79,1.44,1.18,2.14,2.83,2.14,5.06s-.7,3.89-2.14,5.09c-1.45,1.21-3.64,1.82-6.51,1.82h-3.88c-.29,0-.53,.24-.53,.53v5.68c0,.29,.24,.53,.53,.53h4.2c.48,0,.87,0,1.17-.03l7.42,10.63c.1,.14,.26,.23,.44,.23h7.43c.2,0,.38-.11,.47-.29,.09-.18,.08-.39-.04-.55l-8.17-11.67Z"/><g><path class="g" d="M139.91,40.95c-.36,0-.65,.29-.65,.65v5.44c0,.36,.29,.65,.65,.65h13.65c.29,0,.53-.24,.53-.53v-5.68c0-.29-.24-.53-.53-.53h-13.65Z"/><path class="g" d="M156.59,56.88h-20.44v-24.53h19.7c.29,0,.53-.24,.53-.53v-5.79c0-.29-.24-.53-.53-.53h-27.13c-.29,0-.53,.24-.53,.53V63.2c0,.29,.24,.53,.53,.53h27.88c.29,0,.53-.24,.53-.53v-5.79c0-.29-.24-.53-.53-.53Z"/></g><g><path class="e" d="M63.98,14.92l-2.43-1.03c-1.39-.59-2.91-1.17-4.91-1.17-2.19,0-3.84,.71-5.17,1.28-1.02,.43-1.75,.75-2.61,.75-.7,0-1.31-.2-2.24-.6l-2.46-1.04c-.07-.03-.14-.03-.2,0-.07,.03-.12,.08-.14,.14l-2.28,5.47c-.06,.14,0,.29,.14,.35l2.44,1.03c1.26,.53,2.78,1.1,4.75,1.1,2.18,0,3.84-.71,5.17-1.28,1.02-.43,1.75-.75,2.61-.75,.79,0,1.48,.27,2.38,.65l2.46,1.05c.06,.03,.14,.03,.2,0,.07-.03,.12-.08,.15-.14l2.28-5.47c.06-.13,0-.29-.14-.35Z"/><path class="g" d="M73.45,63.12L56.67,25.95c-.09-.19-.27-.31-.48-.31h-6.8c-.21,0-.4,.12-.48,.31l-16.73,37.17c-.07,.16-.06,.35,.04,.51s.27,.24,.45,.24h7.28c.43,0,.81-.26,.98-.65l11.81-27.63,11.93,27.63c.17,.39,.55,.65,.98,.65h7.32c.18,0,.35-.09,.45-.24,.1-.15,.11-.34,.04-.51Z"/></g></g><path class="f" d="M281.36,76.58c-.46,0-.83-.37-.83-.83V.83c0-.46,.37-.83,.83-.83s.83,.37,.83,.83V75.75c0,.46-.37,.83-.83,.83Z"/><g><path class="d" d="M303.56,50.14c-1.08-.59-1.93-1.4-2.54-2.43-.61-1.04-.92-2.2-.92-3.5s.31-2.47,.93-3.5c.62-1.04,1.47-1.85,2.55-2.43,1.08-.59,2.29-.88,3.63-.88,1.08,0,2.08,.19,2.97,.57,.9,.38,1.65,.93,2.27,1.65l-1.59,1.5c-.96-1.04-2.14-1.55-3.54-1.55-.91,0-1.72,.2-2.44,.6-.72,.4-1.28,.95-1.69,1.66-.4,.71-.61,1.51-.61,2.4s.2,1.7,.61,2.41c.4,.71,.97,1.26,1.69,1.66,.72,.4,1.53,.6,2.44,.6,1.4,0,2.58-.52,3.54-1.57l1.59,1.51c-.62,.72-1.38,1.27-2.28,1.65s-1.9,.57-2.98,.57c-1.34,0-2.55-.29-3.63-.88Z"/><path class="d" d="M326.54,47.77h-6.63l-1.31,3.07h-2.54l5.96-13.25h2.42l5.98,13.25h-2.58l-1.33-3.07Zm-.81-1.93l-2.5-5.79-2.48,5.79h4.98Z"/><path class="d" d="M347.31,37.58v13.25h-2.03l-7.31-8.98v8.98h-2.44v-13.25h2.03l7.31,8.98v-8.98h2.44Z"/><path class="d" d="M362.88,47.77h-6.63l-1.31,3.07h-2.54l5.96-13.25h2.42l5.98,13.25h-2.58l-1.33-3.07Zm-.81-1.93l-2.5-5.79-2.48,5.79h4.98Z"/><path class="d" d="M380.54,50.83l-2.71-3.88c-.11,.01-.28,.02-.51,.02h-2.99v3.86h-2.46v-13.25h5.45c1.15,0,2.15,.19,3,.57,.85,.38,1.51,.92,1.96,1.63,.46,.71,.68,1.55,.68,2.52s-.24,1.86-.73,2.58c-.49,.72-1.18,1.26-2.09,1.61l3.05,4.36h-2.65Zm-.89-10.49c-.56-.46-1.37-.68-2.44-.68h-2.88v5.28h2.88c1.07,0,1.89-.23,2.44-.69s.83-1.11,.83-1.96-.28-1.5-.83-1.95Z"/><path class="d" d="M389.12,37.58h2.46v13.25h-2.46v-13.25Z"/><path class="d" d="M407.17,47.77h-6.63l-1.31,3.07h-2.54l5.96-13.25h2.42l5.98,13.25h-2.58l-1.33-3.07Zm-.81-1.93l-2.5-5.79-2.48,5.79h4.98Z"/><path class="d" d="M417.31,50.59c-.95-.29-1.71-.67-2.26-1.16l.85-1.91c.54,.43,1.21,.78,2,1.05s1.58,.41,2.38,.41c.99,0,1.72-.16,2.21-.47,.49-.32,.73-.73,.73-1.25,0-.38-.14-.69-.41-.94s-.62-.44-1.03-.58c-.42-.14-.98-.3-1.7-.47-1.01-.24-1.83-.48-2.45-.72-.62-.24-1.16-.62-1.61-1.13-.45-.51-.67-1.2-.67-2.07,0-.73,.2-1.4,.6-2,.4-.6,1-1.08,1.8-1.43s1.78-.53,2.95-.53c.81,0,1.6,.1,2.39,.3,.78,.2,1.46,.49,2.03,.87l-.78,1.91c-.58-.34-1.19-.6-1.82-.78s-1.24-.26-1.84-.26c-.97,0-1.69,.16-2.17,.49s-.71,.76-.71,1.31c0,.38,.14,.69,.41,.93,.27,.24,.62,.43,1.03,.57,.42,.14,.98,.3,1.7,.47,.98,.23,1.79,.46,2.42,.71,.63,.25,1.17,.62,1.62,1.13s.67,1.19,.67,2.05c0,.73-.2,1.39-.6,1.99-.4,.59-1,1.07-1.81,1.42s-1.79,.53-2.95,.53c-1.02,0-2.01-.15-2.96-.44Z"/><path class="e" d="M431.29,50.52c-.3-.3-.45-.67-.45-1.13s.15-.85,.44-1.14,.67-.44,1.11-.44,.81,.15,1.11,.44,.45,.67,.45,1.14-.15,.83-.46,1.13c-.3,.3-.67,.45-1.1,.45s-.8-.15-1.1-.45Z"/></g></g></g></g></svg>